<svg width="16" height="16" viewBox="0 0 16 16" fill="none" xmlns="http://www.w3.org/2000/svg">
<path d="M11 2C11 0.89543 11.8954 0 13 0H14C15.1046 0 16 0.895431 16 2V3C16 4.10457 15.1046 5 14 5H13C11.8954 5 11 4.10457 11 3V2Z" fill="white"/>
<path d="M0 2C0 0.89543 0.895431 0 2 0H3C4.10457 0 5 0.895431 5 2V3C5 4.10457 4.10457 5 3 5H2C0.89543 5 0 4.10457 0 3V2Z" fill="white"/>
<path d="M0 13C0 11.8954 0.895431 11 2 11H3C4.10457 11 5 11.8954 5 13V14C5 15.1046 4.10457 16 3 16H2C0.89543 16 0 15.1046 0 14V13Z" fill="white"/>
<path d="M11 13C11 11.8954 11.8954 11 13 11H14C15.1046 11 16 11.8954 16 13V14C16 15.1046 15.1046 16 14 16H13C11.8954 16 11 15.1046 11 14V13Z" fill="white"/>
</svg>
